<svg width="22" height="23" viewBox="0 0 22 23" fill="none" xmlns="http://www.w3.org/2000/svg">
<path d="M20.9436 13.4201C20.5476 11.3961 19.5356 9.50408 18.0396 8.09608L17.8636 8.27208L15.3556 10.7801C16.1476 11.5721 16.6756 12.5841 16.9396 13.6841C16.9836 13.9481 17.2476 14.1681 17.5556 14.1681H20.3276C20.5036 14.1681 20.7236 14.0801 20.8116 13.9481C20.9436 13.8161 20.9876 13.6401 20.9436 13.4201ZM11.4396 5.28008V9.02008C12.6276 9.10808 13.7716 9.54808 14.6956 10.2521L17.3796 7.56808C15.7076 6.16008 13.5956 5.36808 11.4396 5.28008ZM4.13556 8.31608L3.95956 8.09608C2.46356 9.54808 1.45156 11.4401 1.05556 13.4201C1.01156 13.5961 1.05556 13.8161 1.18756 13.9481C1.31956 14.0801 1.49556 14.1681 1.67156 14.1681H4.44356C4.75156 14.1681 5.01556 13.9481 5.05956 13.6841C5.32356 12.5841 5.85156 11.5721 6.64356 10.7801L4.13556 8.31608ZM4.61956 7.52408L7.30356 10.2081C7.30356 10.2081 7.34756 10.1641 7.39156 10.1641C7.39156 9.90008 7.43556 9.68008 7.61156 9.50408C7.83156 9.24008 8.13956 9.06408 8.49156 9.06408C8.71156 9.06408 8.93156 9.15208 9.15156 9.28408C9.63556 9.10808 10.1196 9.02008 10.6036 8.97608V5.23608C8.40356 5.36808 6.29156 6.16008 4.61956 7.52408Z" fill="#D6D7D8"/>
<path d="M10.9995 12.1442C10.8675 12.1442 10.6915 12.1442 10.5595 12.1882C9.94349 11.5282 8.97549 10.4282 8.62349 10.0321C8.49149 9.90014 8.22749 10.0321 8.27149 10.2081C8.35949 10.5162 8.22749 10.0321 9.10749 13.0242C8.71149 13.4642 8.49149 14.0362 8.49149 14.6522C8.49149 16.0162 9.63549 17.1602 10.9995 17.1602C12.4075 17.1602 13.5075 16.0162 13.5075 14.6522C13.5075 13.2442 12.3635 12.1442 10.9995 12.1442ZM10.9995 15.7522C10.4275 15.7522 9.98749 15.3122 9.98749 14.7402C9.98749 14.1682 10.4715 13.7282 10.9995 13.7282C11.5715 13.7282 12.0115 14.1682 12.0115 14.7402C12.0115 15.2682 11.5715 15.7522 10.9995 15.7522Z" fill="#D6D7D8"/>
</svg>
