<svg width="16" height="12" viewBox="0 0 16 12" fill="none" xmlns="http://www.w3.org/2000/svg">
<path fill-rule="evenodd" clip-rule="evenodd" d="M1.80356 1.40378L6.12606 5.72816C7.06881 6.66909 8.60987 6.66991 9.5534 5.72816L13.8759 1.40378C13.9194 1.36025 13.913 1.28856 13.8625 1.25335C13.4217 0.945877 12.8853 0.763596 12.3075 0.763596H3.372C2.79415 0.763596 2.25775 0.945908 1.81687 1.25335C1.76637 1.28856 1.76003 1.36025 1.80356 1.40378ZM0.648438 3.48713C0.648438 3.03275 0.761093 2.60344 0.959533 2.22609C0.990563 2.16706 1.06922 2.15513 1.11637 2.20228L5.38415 6.47006C6.73562 7.8235 8.94306 7.82428 10.2953 6.47006L14.5631 2.20228C14.6102 2.15513 14.6889 2.16706 14.7199 2.22609C14.9183 2.60344 15.031 3.03278 15.031 3.48713V9.17266C15.031 10.6756 13.8085 11.8962 12.3075 11.8962H3.372C1.871 11.8962 0.648438 10.6756 0.648438 9.17266V3.48713Z" fill="black"/>
</svg>
