<svg width="16" height="17" viewBox="0 0 16 17" fill="none" xmlns="http://www.w3.org/2000/svg">
<mask id="mask0_1_9495" style="mask-type:luminance" maskUnits="userSpaceOnUse" x="0" y="0" width="16" height="17">
<path d="M16 0.219971H0V16.22H16V0.219971Z" fill="white"/>
</mask>
<g mask="url(#mask0_1_9495)">
<path d="M10 0.719971H2C1.4485 0.719971 1 1.16847 1 1.71997V14.72C1 15.2715 1.4485 15.72 2 15.72H10C10.5515 15.72 11 15.2715 11 14.72V1.71997C11 1.16847 10.5515 0.719971 10 0.719971ZM9 5.71997C9 6.27147 8.5515 6.71997 8 6.71997H4C3.4485 6.71997 3 6.27147 3 5.71997V3.71997C3 3.16847 3.4485 2.71997 4 2.71997H8C8.5515 2.71997 9 3.16847 9 3.71997V5.71997Z" fill="#D6D7D8"/>
<path d="M12.5 6.71997H10.5C10.224 6.71997 10 6.49597 10 6.21997C10 5.94397 10.224 5.71997 10.5 5.71997H12.5C12.776 5.71997 13 5.94397 13 6.21997C13 6.49597 12.776 6.71997 12.5 6.71997Z" fill="#D6D7D8"/>
<path d="M12.5 14.72C12.224 14.72 12 14.496 12 14.22V6.21997C12 5.94397 12.224 5.71997 12.5 5.71997C12.776 5.71997 13 5.94397 13 6.21997V14.22C13 14.496 12.776 14.72 12.5 14.72Z" fill="#D6D7D8"/>
<path d="M14.5 14.72H12.5C12.224 14.72 12 14.496 12 14.22C12 13.944 12.224 13.72 12.5 13.72H14.5C14.776 13.72 15 13.944 15 14.22C15 14.496 14.776 14.72 14.5 14.72Z" fill="#D6D7D8"/>
<path d="M14.9616 3.02885C14.9361 2.96785 14.8996 2.91235 14.8536 2.86635L12.8536 0.866352C12.6581 0.670852 12.3421 0.670852 12.1466 0.866352C11.9511 1.06185 11.9511 1.37785 12.1466 1.57335L12.4936 1.92035C12.1831 2.28135 12.0001 2.73835 12.0001 3.21985C12.0001 4.32285 12.8971 5.21985 14.0001 5.21985V14.2199C14.0001 14.4959 14.2241 14.7199 14.5001 14.7199C14.7761 14.7199 15.0001 14.4959 15.0001 14.2199V3.21985C15.0001 3.15485 14.9866 3.08985 14.9616 3.02885Z" fill="#D6D7D8"/>
</g>
</svg>
