<svg width="22" height="23" viewBox="0 0 22 23" fill="none" xmlns="http://www.w3.org/2000/svg">
<g clip-path="url(#clip0_1_9475)">
<mask id="mask0_1_9475" style="mask-type:luminance" maskUnits="userSpaceOnUse" x="0" y="0" width="22" height="23">
<path d="M22 0.219971H0V22.22H22V0.219971Z" fill="white"/>
</mask>
<g mask="url(#mask0_1_9475)">
<path d="M14.333 10.72L13.0997 10.2866C12.9997 9.95325 12.8663 9.61992 12.6663 9.28659L13.233 8.11992C13.2997 7.98659 13.2663 7.81992 13.1663 7.75325L11.733 6.31992C11.633 6.21992 11.4663 6.18659 11.3663 6.25325L10.1997 6.81992C9.86634 6.65325 9.53301 6.51992 9.19967 6.38659L8.76634 5.15325C8.73301 5.01992 8.59967 4.91992 8.46634 4.91992H6.43301C6.29967 4.91992 6.16634 5.01992 6.09967 5.15325L5.66634 6.38659C5.33301 6.48659 4.99967 6.61992 4.66634 6.81992L3.53301 6.21992C3.39967 6.15325 3.26634 6.18659 3.13301 6.28659L1.69967 7.71992C1.59967 7.81992 1.56634 7.98659 1.63301 8.08659L2.19967 9.25325C2.03301 9.58659 1.89967 9.91992 1.79967 10.2533L0.566341 10.6866C0.433008 10.7533 0.333008 10.8866 0.333008 11.02V13.0533C0.333008 13.1866 0.433008 13.32 0.566341 13.3866L1.79967 13.8199C1.89967 14.1533 2.03301 14.4866 2.23301 14.8199L1.66634 15.9866C1.59967 16.1199 1.63301 16.2866 1.73301 16.3866L3.16634 17.8199C3.26634 17.9199 3.43301 17.9533 3.56634 17.8866L4.73301 17.3199C5.06634 17.4866 5.39967 17.62 5.73301 17.7533L6.16634 18.9866C6.19967 19.1199 6.33301 19.22 6.46634 19.22H8.49967C8.63301 19.22 8.76634 19.1199 8.79967 18.9866L9.23301 17.7533C9.56634 17.6533 9.89968 17.5199 10.233 17.3199L11.3997 17.8866C11.533 17.9533 11.6663 17.9199 11.7663 17.8199L13.1997 16.3866C13.2997 16.2866 13.333 16.1199 13.2663 15.9866L12.6663 14.7866C12.833 14.4533 12.9663 14.12 13.0997 13.7866L14.333 13.3533C14.4663 13.32 14.5663 13.1866 14.5663 13.02V10.9866C14.5663 10.8866 14.4663 10.7533 14.333 10.72ZM7.43301 14.8866C5.86634 14.8866 4.59967 13.62 4.59967 12.0533C4.59967 10.4866 5.86634 9.21992 7.43301 9.21992C8.99967 9.21992 10.2663 10.4866 10.2663 12.0533C10.2663 13.5866 8.99967 14.8866 7.43301 14.8866Z" fill="#D6D7D8"/>
<path d="M21.4332 4.08665L20.7665 3.85332C20.6999 3.68665 20.6332 3.51999 20.5665 3.38665L20.8665 2.75332C20.9332 2.61999 20.8999 2.48665 20.7999 2.35332L19.9999 1.51999C19.8999 1.41999 19.7332 1.38665 19.6332 1.45332L18.9999 1.75332C18.8332 1.68665 18.6999 1.61999 18.5332 1.55332L18.2999 0.886653C18.2665 0.75332 18.1332 0.65332 17.9999 0.65332H16.7999C16.6665 0.65332 16.5332 0.75332 16.4665 0.886653L16.2332 1.55332C16.0665 1.61999 15.8999 1.68665 15.7665 1.75332L15.1332 1.45332C14.9999 1.38665 14.8332 1.41999 14.7332 1.51999L13.8999 2.35332C13.7999 2.45332 13.7665 2.61999 13.8332 2.75332L14.1332 3.38665C14.0665 3.55332 13.9999 3.68665 13.9332 3.85332L13.2665 4.08665C13.1332 4.11999 13.0332 4.25332 13.0332 4.38665V5.58665C13.0332 5.71999 13.1332 5.85332 13.2665 5.88665L13.9332 6.11999C13.9999 6.28665 14.0665 6.45332 14.1332 6.61999L13.8332 7.21999C13.7665 7.35332 13.7999 7.51999 13.8999 7.61999L14.7332 8.45332C14.8332 8.55332 14.9999 8.58665 15.1332 8.51999L15.7665 8.21999C15.9332 8.28665 16.0999 8.35332 16.2332 8.41999L16.4665 9.08665C16.4999 9.21999 16.6332 9.31999 16.7999 9.31999H17.9999C18.1332 9.31999 18.2665 9.21999 18.2999 9.08665L18.5332 8.41999C18.6999 8.35332 18.8665 8.28665 18.9999 8.21999L19.6332 8.51999C19.7665 8.58665 19.8999 8.55332 20.0332 8.45332L20.8665 7.61999C20.9665 7.51999 20.9999 7.35332 20.9332 7.21999L20.6332 6.58665C20.6999 6.41999 20.7665 6.25332 20.8332 6.08665L21.4999 5.85332C21.6332 5.81999 21.7332 5.68665 21.7332 5.55332V4.35332C21.6665 4.25332 21.5665 4.11999 21.4332 4.08665ZM17.3665 6.65332C16.4332 6.65332 15.6999 5.91999 15.6999 4.98665C15.6999 4.08665 16.4332 3.31999 17.3665 3.31999C18.2665 3.31999 19.0332 4.05332 19.0332 4.98665C19.0332 5.91999 18.2665 6.65332 17.3665 6.65332Z" fill="#D6D7D8"/>
<path d="M21.4325 14.9532L20.4992 14.6199C20.4325 14.3532 20.3325 14.1199 20.1992 13.8865L20.6325 12.9865C20.6992 12.8532 20.6659 12.7199 20.5659 12.6199L19.4325 11.4865C19.3325 11.3865 19.1659 11.3532 19.0325 11.4199L18.1659 11.8865C17.9325 11.7532 17.6659 11.6532 17.4325 11.5865L17.1325 10.6532C17.0992 10.5199 16.9659 10.4199 16.7992 10.4199H15.1992C15.1325 10.4199 15.0992 10.4199 15.0325 10.4532C15.1325 10.6199 15.1992 10.8199 15.1992 11.0199V13.0532C15.1992 13.4865 14.9325 13.8532 14.5325 13.9865L13.5992 14.3199C13.5325 14.4865 13.4659 14.6532 13.3992 14.7865L13.8325 15.6532C14.0325 16.0532 13.9659 16.4865 13.6325 16.8198L12.1992 18.2532C12.0325 18.4198 11.8325 18.5198 11.6325 18.5532L11.3325 19.1532C11.2659 19.2865 11.2992 19.4199 11.3992 19.5199L12.5325 20.6532C12.6325 20.7532 12.7992 20.7865 12.9325 20.7198L13.8325 20.2865C14.0659 20.4199 14.3325 20.5198 14.5659 20.5865L14.8992 21.5199C14.9325 21.6532 15.0659 21.7532 15.2325 21.7532H16.8325C16.9659 21.7532 17.0992 21.6532 17.1659 21.5199L17.4659 20.5865C17.7325 20.4865 17.9659 20.3865 18.1992 20.2865L19.0992 20.7198C19.2325 20.7865 19.3659 20.7532 19.4992 20.6532L20.6325 19.5199C20.7325 19.4199 20.7659 19.2532 20.6992 19.1532L20.2659 18.2532C20.3992 18.0198 20.4992 17.7532 20.5659 17.5199L21.4992 17.1865C21.6325 17.1532 21.7325 17.0199 21.7325 16.8532V15.2532C21.6659 15.1199 21.5659 15.0199 21.4325 14.9532ZM16.3325 18.3198C15.0992 18.3198 14.0992 17.3198 14.0992 16.0865C14.0992 14.8532 15.0992 13.8532 16.3325 13.8532C17.5659 13.8532 18.5659 14.8532 18.5659 16.0865C18.5659 17.3198 17.5659 18.3198 16.3325 18.3198Z" fill="#D6D7D8"/>
</g>
</g>
<defs>
<clipPath id="clip0_1_9475">
<rect width="22" height="22" fill="white" transform="translate(0 0.219971)"/>
</clipPath>
</defs>
</svg>
