<svg width="13" height="12" viewBox="0 0 13 12" fill="none" xmlns="http://www.w3.org/2000/svg">
<path d="M12.1487 4.80594C12.0735 4.57351 11.8674 4.40843 11.6235 4.38645L8.3105 4.08563L7.00046 1.01935C6.90387 0.794633 6.68388 0.64917 6.43945 0.64917C6.19503 0.64917 5.97504 0.794633 5.87845 1.01988L4.56841 4.08563L1.2549 4.38645C1.01144 4.40896 0.80581 4.57351 0.730232 4.80594C0.654655 5.03836 0.724452 5.29329 0.908623 5.454L3.41285 7.65021L2.67441 10.9031C2.62038 11.1422 2.71321 11.3895 2.91165 11.5329C3.01832 11.61 3.14312 11.6492 3.26896 11.6492C3.37747 11.6492 3.4851 11.6199 3.58169 11.5621L6.43945 9.85414L9.29617 11.5621C9.50521 11.6879 9.76871 11.6764 9.96673 11.5329C10.1653 11.389 10.258 11.1417 10.204 10.9031L9.46554 7.65021L11.9698 5.45443C12.1539 5.29329 12.2242 5.0388 12.1487 4.80594Z" fill="#FFC700"/>
</svg>
