<svg width="24" height="25" viewBox="0 0 24 25" fill="none" xmlns="http://www.w3.org/2000/svg">
<g clip-path="url(#clip0_1_9499)">
<path d="M20.3775 18.0739C20.0945 17.5907 19.6428 17.2292 19.1094 17.0588L19.0445 17.0393C18.9666 17.0144 18.8861 16.9981 18.8045 16.9907C18.3881 17.0937 17.9962 17.2783 17.6516 17.5338C17.307 17.7894 17.0165 18.1107 16.797 18.4793L16.4856 22.9225C16.437 22.9225 16.4597 22.9225 16.4856 22.9225L16.4597 23.5712H16.7062C19.9072 23.5712 20.5072 20.8598 20.5591 20.5842C20.8251 19.5755 20.757 18.729 20.3775 18.0739Z" fill="#D6D7D8"/>
<path d="M7.51423 22.9227L7.18991 18.4892C6.91423 18.2363 6.30126 17.0622 5.18234 16.9973C5.10115 17.007 5.02088 17.0233 4.94234 17.046H4.89693C4.3516 17.2116 3.8885 17.5763 3.59964 18.0676C3.21369 18.7163 3.15207 19.5692 3.41801 20.5779C3.46991 20.8503 4.06666 23.5649 7.27099 23.5649H7.51747L7.49153 22.9163C7.54018 22.9228 7.55964 22.9227 7.51423 22.9227Z" fill="#D6D7D8"/>
<path d="M9.5159 5.68166H10.1646V6.73896H9.06185V11.5455H14.9418V6.73896H13.8391V5.68166H14.4878C14.6523 5.68171 14.8149 5.64712 14.9651 5.58013C15.1153 5.51314 15.2497 5.41526 15.3595 5.29287C15.4693 5.17048 15.5522 5.02633 15.6026 4.86979C15.653 4.71325 15.6699 4.54785 15.6521 4.38436L15.3732 1.92274C15.3449 1.63259 15.209 1.36355 14.9924 1.16849C14.7757 0.97344 14.4939 0.866495 14.2024 0.868685H9.79807C9.50761 0.867229 9.22705 0.974087 9.01115 1.16839C8.79526 1.3627 8.65954 1.6305 8.6305 1.9195L8.35158 4.3876C8.33381 4.5511 8.35069 4.7165 8.40111 4.87303C8.45152 5.02957 8.53435 5.17373 8.6442 5.29612C8.75404 5.41851 8.88844 5.51638 9.03863 5.58337C9.18883 5.65036 9.35145 5.68495 9.5159 5.6849V5.68166ZM13.1905 6.73896H10.81V5.68166H13.1905V6.73896Z" fill="#D6D7D8"/>
<path d="M18.665 16.3584L18.7623 16.3357H18.8596H18.9277C18.6683 14.7465 18.331 12.1649 18.4834 10.1184C18.5552 9.70724 18.5431 9.28584 18.4478 8.87952C18.3524 8.4732 18.1759 8.09036 17.9288 7.75404C17.4261 7.13458 16.6315 6.78107 15.5904 6.73242V18.0157H8.40988V6.75188C7.36231 6.81026 6.5742 7.15404 6.0715 7.7735C5.82381 8.10958 5.64671 8.4923 5.55084 8.89863C5.45497 9.30496 5.44232 9.72648 5.51366 10.1378C5.66609 12.1843 5.3288 14.766 5.06934 16.3552C5.08443 16.3567 5.09964 16.3567 5.11474 16.3552H5.17312H5.2315C6.40231 16.4233 7.10934 17.3281 7.50177 17.8276C7.54907 17.8951 7.59995 17.9601 7.6542 18.0222L7.82609 18.1908L7.86177 18.4503V18.6773L8.20555 23.5422H8.18609V23.5714H15.8077L15.8596 22.2741H15.892L16.1742 18.2784L16.2585 18.1422C16.5202 17.6992 16.868 17.3132 17.2813 17.0068C17.6946 16.7005 18.1651 16.48 18.665 16.3584Z" fill="#D6D7D8"/>
<path d="M9.05859 12.1941H14.9418V17.3671H9.05859V12.1941Z" fill="#D6D7D8"/>
</g>
<defs>
<clipPath id="clip0_1_9499">
<rect width="24" height="24" fill="white" transform="translate(0 0.219971)"/>
</clipPath>
</defs>
</svg>
