<svg width="35" height="35" viewBox="0 0 35 35" fill="none" xmlns="http://www.w3.org/2000/svg">
<mask id="mask0_1_10216" style="mask-type:luminance" maskUnits="userSpaceOnUse" x="0" y="0" width="35" height="35">
<path d="M35 0.470001H0.125V34.22H35V0.470001Z" fill="white"/>
</mask>
<g mask="url(#mask0_1_10216)">
<path d="M35 34.2199H0.125C1.65423 33.4651 3.11995 32.5827 4.50726 31.5815C7.11772 29.6978 10.6613 27.808 14.7365 27.4458C21.6642 26.83 30.2457 31.9257 35 34.2199Z" fill="black"/>
<path d="M17.5598 22.4769C16.0833 18.9329 13.4256 17.3933 12.02 17.2544C11.6173 17.2278 11.2135 17.2859 10.8336 17.4251C10.4537 17.5642 10.1057 17.7815 9.81109 18.0635C10.033 17.7886 10.2737 17.5303 10.5317 17.2907C10.1596 16.9465 9.72259 16.6144 9.72259 16.6144C10.1124 16.8016 10.5376 17.0492 10.6911 17.1458C11.0947 16.7859 11.5252 16.4589 11.9787 16.1677C11.5904 15.8468 11.182 15.5524 10.7561 15.2862C11.2903 15.467 11.8065 15.6995 12.2976 15.9805C12.9066 15.6239 13.5402 15.3132 14.1934 15.0507C13.939 14.8343 13.6728 14.6327 13.3961 14.447C13.7783 14.5846 14.1495 14.7521 14.5064 14.9481C15.2095 14.6757 15.9297 14.4518 16.6621 14.2779C13.0358 13.2455 10.2009 14.3987 9.20869 15.4432C8.80576 15.874 8.55079 16.427 8.48229 17.019C8.04959 16.0112 7.29323 15.1848 6.3384 14.6764C4.1768 13.7526 2.0152 15.5639 2.0152 15.5639C2.91354 15.3863 3.84358 15.496 4.67881 15.8779L5.48203 15.3405L4.93868 15.9986C5.78907 16.4474 6.55809 17.0417 7.21249 17.7555C6.66847 17.4148 6.02466 17.2802 5.39344 17.3752C3.99372 17.6106 1.44823 19.3374 0.213867 22.978C0.757307 22.4769 1.33566 22.0169 1.94433 21.6015C1.99425 21.1941 2.0712 20.7907 2.17466 20.394C2.17004 20.7368 2.18582 21.0795 2.22191 21.4204C2.80497 21.0175 3.417 20.6602 4.05278 20.3517C4.10411 19.7788 4.21094 19.2125 4.3717 18.6612C4.33766 19.1718 4.33766 19.6841 4.3717 20.1947C4.8592 19.9772 5.36278 19.7996 5.87773 19.6634C5.87773 19.4763 5.93089 18.9812 6.00176 18.5465C6.00176 18.5465 6.00176 19.1019 6.08444 19.6091C6.27737 19.5648 6.47424 19.5286 6.67505 19.5004C5.96632 20.2128 5.2517 21.7524 5.31666 25.061C5.31666 25.061 5.73599 24.0769 6.27344 23.0505C6.16948 22.6381 6.11397 22.2145 6.10807 21.7886C6.10807 21.7886 6.26163 22.2898 6.4329 22.7426C6.59236 22.4407 6.76364 22.1388 6.929 21.8792L6.97035 21.8128C6.91129 21.4868 6.80498 20.8347 6.77545 20.3819C6.77545 20.3819 6.94672 20.9856 7.14753 21.5351C7.55059 20.8997 8.02426 20.3142 8.55906 19.7902C11.8546 25.5742 11.5121 33.9966 11.5121 33.9966L13.0595 33.8577C12.6342 25.8278 10.0828 21.04 9.13199 19.5125C9.89939 19.37 10.6856 19.37 11.453 19.5125C11.453 18.9993 11.453 18.4438 11.453 18.4438C11.5534 18.8725 11.6243 19.3676 11.6479 19.5487C12.1717 19.6482 12.6871 19.7895 13.1894 19.9713C13.2003 19.4531 13.1766 18.9346 13.1185 18.4197C13.3159 18.9592 13.4603 19.5174 13.5497 20.086C14.2148 20.3401 14.8604 20.6448 15.4809 20.9977C15.5002 20.6559 15.5002 20.3132 15.4809 19.9713C15.6105 20.3661 15.7131 20.7696 15.788 21.1788C16.4084 21.5675 17.0005 22.0013 17.5598 22.4769Z" fill="black"/>
<path d="M8.57099 16.041C9.42148 10.6615 12.5517 7.63063 14.4416 6.94838C14.9844 6.77036 15.5574 6.70904 16.1246 6.76826C16.6917 6.82749 17.2407 7.00598 17.7371 7.29253C17.3414 6.99967 16.9248 6.73732 16.491 6.50764C16.8867 5.90389 17.3769 5.30013 17.3769 5.30013C16.9044 5.69257 16.4083 6.18161 16.2252 6.36274C15.5543 6.01442 14.8571 5.72166 14.1404 5.48729C14.563 4.90745 15.0227 4.35683 15.5165 3.83904C14.8422 4.26042 14.2111 4.7499 13.6325 5.30013C12.6756 5.0267 11.7005 4.82491 10.7149 4.69637C10.99 4.30203 11.2858 3.92313 11.6008 3.56131C11.1259 3.88889 10.6739 4.25001 10.2483 4.64203C9.21218 4.51025 8.16781 4.45778 7.12402 4.48506C11.7603 1.7923 16.0303 2.39002 17.7312 3.48886C18.4258 3.94057 18.9616 4.60672 19.2609 5.39069C19.6034 3.90545 20.2413 2.31757 21.4166 1.43005C24.0389 -0.56235 27.6061 1.1644 27.6061 1.1644C26.3162 1.23303 25.0785 1.70749 24.0625 2.52285L22.7809 2.06399L23.7495 2.78246C22.7309 3.68886 21.8719 4.7671 21.2099 5.9703C21.8483 5.33047 22.6823 4.93405 23.5723 4.84731C25.5803 4.69637 29.6555 6.16954 32.5435 10.7339C31.6257 10.2229 30.6745 9.7771 29.6968 9.3996C29.4975 8.851 29.2587 8.3182 28.9822 7.80572C29.1011 8.2749 29.1938 8.7506 29.2598 9.2306C28.3242 8.8832 27.3648 8.6067 26.3894 8.4034C26.1315 7.63393 25.797 6.89348 25.3913 6.19369C25.5982 6.88598 25.758 7.59204 25.8697 8.3068C25.1283 8.17561 24.3778 8.10495 23.6254 8.09552C23.5427 7.84798 23.3242 7.17781 23.0821 6.61028C23.0821 6.61028 23.2415 7.38309 23.3242 8.09552C23.0466 8.09552 22.7336 8.09552 22.4915 8.14382C23.6727 8.8804 25.1905 10.74 26.1945 15.3044C26.1945 15.3044 25.2909 14.0969 24.216 12.8894C24.2247 12.2797 24.1592 11.6713 24.0211 11.0781C24.0211 11.0781 23.9798 11.8207 23.8971 12.5029C23.5782 12.1467 23.2474 11.7966 22.9285 11.4886L22.8517 11.4162C22.8517 10.9453 22.7513 10.0215 22.6391 9.3876C22.6391 9.3876 22.6391 10.2811 22.5092 11.1022C21.7577 10.3846 20.9273 9.7585 20.0346 9.2366C17.4418 18.293 20.6901 29.7644 20.6901 29.7644L18.5167 30.1145C16.4496 18.9631 18.3573 11.4826 19.1546 9.0495C18.0552 9.1128 16.9755 9.3744 15.9653 9.8223C15.7527 9.134 15.5933 8.3612 15.5933 8.3612C15.5985 8.8918 15.63 9.4217 15.6878 9.9491C14.9999 10.2639 14.3382 10.6354 13.7092 11.06C13.5309 10.3573 13.3987 9.6433 13.3135 8.9227C13.2244 9.7245 13.2125 10.5334 13.2781 11.3377C12.4669 11.9275 11.699 12.5773 10.9807 13.2818C10.8508 12.8151 10.7463 12.3414 10.6676 11.863C10.6279 12.4479 10.6279 13.035 10.6676 13.6199C9.91168 14.3733 9.21088 15.1825 8.57099 16.041Z" fill="black"/>
</g>
</svg>
